<?xml version="1.0" standalone="no"?><!DOCTYPE svg PUBLIC "-//W3C//DTD SVG 1.1//EN" "http://www.w3.org/Graphics/SVG/1.1/DTD/svg11.dtd"><svg t="1623904679111" class="icon" viewBox="0 0 1024 1024" version="1.1" xmlns="http://www.w3.org/2000/svg" p-id="10140" width="32" height="32" xmlns:xlink="http://www.w3.org/1999/xlink"><defs><style type="text/css"></style></defs><path d="M998.59 743.972c-16.728 17.824-39.169 27.641-63.181 27.641H325.267c-24.012 0-46.448-9.818-63.181-27.641-16.385-17.455-25.41-40.664-25.41-65.351V93.172c0-24.688 9.024-47.896 25.41-65.351C278.819 10.003 301.255 0.185 325.267 0.185h610.142c24.012 0 46.448 9.818 63.181 27.636 16.385 17.455 25.41 40.664 25.41 65.351v585.449c0 24.688-9.024 47.896-25.41 65.351zM936.52 93.197l-0.481-1.561c-0.169-0.548-0.42-0.87-0.563-1.014H325.395c-0.338 0.184-1.239 1.08-1.239 2.549V678.62c0 1.474 0.901 2.365 1.234 2.554h609.896c0.333-0.189 1.234-1.08 1.234-2.554V93.197zM623.978 556.805c-8.144 8.149-18.97 12.638-30.482 12.638-11.517 0-22.338-4.489-30.482-12.638L389.375 382.986c-8.139-8.149-12.623-18.986-12.623-30.513 0-11.522 4.484-22.359 12.623-30.508 8.139-8.149 18.965-12.638 30.482-12.638 11.512 0 22.338 4.484 30.482 12.638L593.496 465.27l252.975-253.24c16.81-16.82 44.155-16.82 60.965 0v0.005c16.805 16.82 16.805 44.195 0 61.021L623.978 556.805z m177.427 296.172c0 24.8-19.518 44.979-43.504 44.979H207.413c-24.012 0-46.453-9.818-63.186-27.641-16.39-17.455-25.415-40.658-25.415-65.346v-585.69c0-24.8 19.513-44.974 43.499-44.974 24.667 0 43.269 19.646 43.269 45.7v585.444c0 1.469 0.901 2.355 1.229 2.539h551.092c23.986 0 43.504 20.183 43.504 44.989z m-118.817 125.85c0 24.806-19.513 44.989-43.499 44.989H88.591c-24.012 0-46.453-9.818-63.181-27.641C9.019 978.719 0 955.511 0 930.818V345.379c0-24.8 19.513-44.979 43.504-44.979 11.702 0 23.065 4.919 31.178 13.498 8.175 8.635 12.556 20.429 12.08 32.453v584.948c0 1.474 0.901 2.37 1.234 2.554h551.092c23.987 0 43.5 20.173 43.5 44.974z" fill="#8a8a8a" p-id="10141"></path></svg>