<?xml version="1.0" standalone="no"?><!DOCTYPE svg PUBLIC "-//W3C//DTD SVG 1.1//EN" "http://www.w3.org/Graphics/SVG/1.1/DTD/svg11.dtd"><svg t="1623140482235" class="icon" viewBox="0 0 1024 1024" version="1.1" xmlns="http://www.w3.org/2000/svg" p-id="3011" width="64" height="64" xmlns:xlink="http://www.w3.org/1999/xlink"><defs><style type="text/css"></style></defs><path d="M511.937 75.464c-217.222 0-393.299 176.138-393.299 393.362 0 133.211 66.261 250.998 167.652 322.225a425.572 425.572 0 0 0 33.3 20.934c28.394 16-33.596 136.551-33.596 136.551s191.025-86.377 226.002-86.377c217.167 0 393.365-176.023 393.365-393.332 0-217.225-176.197-393.363-393.424-393.363zM330.839 264.596c27.067 0 49 19.791 49 43.973 0 24.244-21.932 44.035-49 44.035-27.101 0-49.027-19.791-49.027-44.035 0-24.182 21.959-43.973 49.027-43.973z m40.875 264.082c-12.903 40.152-9.653 25.238-61.059 136.891l-74.504-46.445s83.045-75.584 100.13-109.998c17.99-36.331-19.941-55.82-19.941-55.82l-56.964-35.674 30.795-47.401c42.92 31.94 46.171 34.648 75.168 63.703 22.496 22.558 19.668 53.836 6.375 94.744z m404.493 52.068c-14.561 136.195-191.602 85.42-191.602 85.42l9.564-38.859 34.293 8.783c75.975 4.813 61.957-61.361 61.957-61.361V381.96c0-73.21-62.197-80.792-186.782-36.155l32.364 3.729c-2.496 8.604-8.635 32.306-20.607 32.306h154.031v41.928H585.75v41.868h83.676v20.874H585.75v84.01c0-4.693 28.273-11.074 39.582-19.373l-7.58-30.828 44.395-13.834 36.814 90.022-54.195 22.617-9.566-35.854c-24.184 18.646-74.686 45.479-162.603 43.072-94.084 2.406-69.9-111.855-69.9-111.855l2.407-7.038h66.079c-0.449 20.995-6.133 42.493 1.656 54.891 6.408 10.104 19.01 14.674 29.534 15.277 1.146 0.121-0.296 3.129-0.296 3.129v-94.237H397.461v-20.874h104.615v-41.868h-16.724c-21.537 20.813-41.238 41.928-41.238 41.928l-28.937-25.324c20.545-21.598 41.149-55.767 53.779-78.745-10.677 4.331-21.295 8.842-31.853 13.594-10.798 13.417-22.979 27.372-36.666 41.087 0.455 0.663-47.223-26.769-47.223-26.769 49.361-42.23 77.032-132.524 77.032-132.524l68.727 19.251s-5.745 13.353-17.415 33.747c275.094-77.783 290.975 47.823 290.975 47.823s18.106 86.746 3.674 222.911z" fill="#EC641B" p-id="3012"></path></svg>