<?xml version="1.0" standalone="no"?><!DOCTYPE svg PUBLIC "-//W3C//DTD SVG 1.1//EN" "http://www.w3.org/Graphics/SVG/1.1/DTD/svg11.dtd"><svg t="1624807970753" class="icon" viewBox="0 0 1543 1024" version="1.1" xmlns="http://www.w3.org/2000/svg" p-id="9475" width="192.875" height="128" xmlns:xlink="http://www.w3.org/1999/xlink"><defs><style type="text/css"></style></defs><path d="M28.213938 638.409508c-2.766072 0-5.532145-1.106429-7.191788-3.319286-2.212858-1.659643-3.319287-4.425716-3.319287-7.191789s1.106429-5.532145 3.319287-7.191788l13.830362-13.830362c2.766072-2.766072 6.638574-4.425716 10.511075-3.319287 3.872501 1.106429 6.638574 3.872501 7.745003 7.745003 1.106429 3.872501-0.553214 7.745003-3.319287 10.511075l-13.830362 13.830362c-2.766072 1.659643-4.97893 2.766072-7.745003 2.766072z m66.385738 1.106429c-2.766072 0-5.532145-1.106429-7.191788-3.319287l-13.830362-13.830362c-2.766072-2.766072-4.425716-6.638574-3.319287-10.511075 1.106429-3.872501 3.872501-6.638574 7.745002-7.745002 3.872501-1.106429 7.745003 0.553214 10.511076 3.319287l13.277147 14.383576c2.212858 1.659643 3.319287 4.425716 3.319287 7.191788s-1.106429 5.532145-3.319287 7.191788c-1.659643 2.212858-4.425716 3.319287-7.191788 3.319287z m-12.723933-53.661804c-2.766072 0-5.532145-1.106429-7.191788-3.319287-2.212858-1.659643-3.319287-4.425716-3.319287-7.191788s1.106429-5.532145 3.319287-7.191788l13.830362-13.830362c3.872501-3.872501 10.511075-3.319287 14.383576 0.553214 3.872501 3.872501 3.872501 9.957861 0.553215 14.383577l-13.830362 13.830362c-2.212858 1.659643-4.97893 2.766072-7.745003 2.766072z m-39.831443-1.106429c-2.766072 0-5.532145-1.106429-7.191788-3.319287l-13.830362-13.830362c-3.872501-4.425716-3.872501-10.511075 0.553215-14.936791 3.872501-3.872501 10.511075-3.872501 14.936791 0l13.830362 13.830362c2.212858 1.659643 3.319287 4.425716 3.319286 7.191788s-1.106429 5.532145-3.319286 7.191789c-2.766072 3.319287-5.532145 4.425716-8.298218 3.872501z m1458.273366 219.072933c-23.235008 0-42.0443 18.809292-42.0443 42.044301s18.809292 42.0443 42.0443 42.0443 42.0443-18.809292 42.044301-42.0443c0-23.235008-18.809292-42.0443-42.044301-42.044301z m0 63.066451c-11.617504 0-21.02215-9.404646-21.02215-21.02215s9.404646-21.02215 21.02215-21.02215c11.617504 0 21.02215 9.404646 21.02215 21.02215 0 11.617504-9.404646 21.02215-21.02215 21.02215z m-110.089681-813.778498h-63.066451c-3.872501 0-7.191788-2.212858-9.404646-5.532145-1.659643-3.319287-1.659643-7.191788 0-10.511075 1.659643-3.319287 5.532145-5.532145 9.404646-5.532145h63.066451c6.085359 0 10.511075 4.97893 10.511075 10.511075 0 6.085359-4.425716 11.06429-10.511075 11.06429z" fill="#999999" p-id="9476"></path><path d="M1358.69476 84.641815c-2.766072 0-5.532145-1.106429-7.745003-2.766072-2.212858-2.212858-2.766072-4.97893-2.766073-7.745003v-63.619665c0-6.085359 4.97893-10.511075 10.511076-10.511075 6.085359 0 10.511075 4.97893 10.511075 10.511075v63.619665c0 2.766072-1.106429 5.532145-2.766073 7.745003-2.212858 1.659643-4.97893 2.766072-7.745002 2.766072zM1528.531605 1002.424635h-276.60724c-8.298217 0-13.830362 4.425716-13.830362 10.511075 0 6.085359 5.532145 10.511075 13.830362 10.511076h276.60724c7.191788 0 13.830362-4.425716 13.830362-10.511076 0-6.085359-5.532145-10.511075-13.830362-10.511075zM1210.433279 1002.424635h-21.02215c-8.298217 0-13.830362 4.425716-13.830362 10.511075 0 6.085359 5.532145 10.511075 13.830362 10.511076h21.02215c7.191788 0 13.830362-4.425716 13.830362-10.511076 0-6.085359-5.532145-10.511075-13.830362-10.511075zM1130.21718 1002.424635h-86.854673c-8.298217 0-13.830362 4.425716-13.830362 10.511075 0 6.085359 5.532145 10.511075 13.830362 10.511076h86.854673c8.298217 0 13.830362-4.425716 13.830362-10.511076 0-6.085359-5.532145-10.511075-13.830362-10.511075zM954.84819 1002.424635H356.270124c-8.298217 0-13.830362 4.425716-13.830362 10.511075 0 6.085359 5.532145 10.511075 13.830362 10.511076h598.578066c7.191788 0 13.830362-4.425716 13.830362-10.511076 0-6.085359-5.532145-10.511075-13.830362-10.511075zM284.352242 1002.424635h-269.415451c-8.298217 0-13.830362 4.425716-13.830362 10.511075 0 6.085359 5.532145 10.511075 13.830362 10.511076H284.352242c7.191788 0 13.830362-4.425716 13.830362-10.511076 0-6.085359-5.532145-10.511075-13.830362-10.511075zM1239.200432 793.862777c-2.212858-0.553214-3.872501-1.659643-4.97893-3.319287-1.106429-1.659643-1.659643-3.872501-1.106429-6.085359l0.553214-3.319287c5.532145-30.980011-13.277147-60.853593-43.703943-69.15181l-3.319287-0.553214c-2.212858-0.553214-3.872501-1.659643-4.978931-3.319287-1.659643-2.766072-1.659643-6.085359 0-8.851432s4.97893-3.872501 8.298218-3.319287l2.766072 0.553215c39.278228 10.511075 63.066451 49.236089 55.321448 89.067531l-0.553215 1.659643c0 4.97893-4.425716 7.745003-8.298217 6.638574zM1281.244733 772.840627c-2.212858-0.553214-3.872501-1.659643-4.978931-3.319287-1.106429-1.659643-1.659643-3.872501-1.106429-6.085359l0.553215-3.319287c5.532145-30.980011-13.277147-60.853593-43.703944-69.15181l-3.319287-0.553215c-2.212858-0.553214-3.872501-1.659643-4.97893-3.319287-1.659643-2.766072-1.659643-6.085359 0-8.851431s4.97893-3.872501 8.298217-3.319287l2.766072 0.553214c39.278228 10.511075 63.619665 49.789303 55.321448 89.620746l-0.553214 1.659643c-0.553214 2.212858-1.659643 3.872501-3.319287 4.978931-0.553214 1.106429-2.766072 1.659643-4.97893 1.106429z" fill="#999999" p-id="9477"></path><path d="M724.710967 413.80443c-2.212858-4.425716-6.638574-6.638574-11.617504-6.638574-4.97893 0-8.851432 2.766072-11.617504 6.638574-2.212858 3.872501-2.212858 9.404646 0 13.277148l76.896812 133.877903c2.212858 3.872501 6.638574 6.638574 11.06429 6.638574h0.553215c2.212858 0 4.425716-0.553214 6.085359-1.659643 3.319287-1.659643 5.532145-4.425716 6.085359-7.745003 1.106429-3.319287 0.553214-7.191788-1.106429-9.957861l-76.343598-134.431118zM848.63101 406.612642c-2.212858-4.425716-6.638574-6.638574-11.617504-6.638574-4.97893 0-8.851432 2.766072-11.617504 6.638574-2.212858 3.872501-2.212858 9.404646 0 13.277147l76.896813 133.877904c2.212858 3.872501 6.638574 6.638574 11.617504 6.638574 4.425716 0 8.851432-2.766072 11.064289-6.638574 2.212858-3.872501 2.212858-8.851432 0-13.277147L848.63101 406.612642zM971.997839 398.867639c-2.212858-3.872501-6.638574-6.638574-11.617504-6.638574-4.425716 0-8.851432 2.766072-11.06429 6.638574-2.212858 3.872501-2.212858 8.851432 0 13.277148l76.896813 133.877903c2.212858 3.872501 6.638574 6.638574 11.064289 6.638574h0.553215c2.212858 0 4.425716-0.553214 6.085359-1.659643 3.319287-1.659643 5.532145-4.425716 6.085359-8.298217 1.106429-3.319287 0.553214-7.191788-1.106428-9.957861l-76.896813-133.877904z" fill="#999999" p-id="9478"></path><path d="M1164.516478 284.905457H504.531605l-40.384657-134.984333-4.425716-3.319287H322.524041c-3.319287 0-6.085359 1.659643-8.851432 3.872501-4.97893 4.97893-4.97893 13.277147 0 18.256078 2.212858 2.212858 5.532145 3.872501 8.851432 3.872501h120.600756l174.262561 585.300919c-17.149649 28.213938-16.04322 63.619665 3.319287 90.17396 15.490005 21.02215 39.831442 33.746083 65.832523 33.746083 6.638574 0 13.277147-0.553214 19.362507-2.212858 31.533225-7.745003 55.321448-33.746083 60.853592-65.832523h277.160454c6.638574 39.278228 39.831442 68.045381 80.2161 68.045381 44.810373 0 81.322528-36.512156 81.322528-81.322528 0-42.597515-33.192869-78.556456-75.237169-81.322529h-5.532145c-39.831442 0-74.13074 29.320367-80.216099 68.598596h-276.60724c-4.425716-28.213938-23.788223-52.002161-50.342517-62.513236-9.404646-3.872501-19.362507-5.532145-29.873582-5.532145-17.702863 0-34.852512 6.085359-48.682874 16.596434l-14.383577-47.576445 533.851972-62.513236c40.937871-0.553214 74.683955-34.299298 74.683955-75.237169v-189.752566c0-44.810373-28.767153-76.343598-68.598595-76.343598z m-437.592653 475.211237c10.511075 10.511075 16.04322 24.341437 16.04322 39.278228 0 30.426796-24.894652 55.321448-55.321448 55.321448s-55.321448-24.894652-55.321448-55.321448 24.894652-55.321448 55.321448-55.321448l0.553214-4.978931v4.978931c14.383576 0 28.213938 5.532145 38.725014 16.04322z m480.190167-399.974068v189.199351c0 27.107509-22.128579 49.236089-50.342517 49.789303L616.834144 662.197731l-104.557537-351.291194h651.686656c29.873582 0 43.150729 25.447866 43.150729 49.236089zM1124.685035 744.073474c30.426796 0 55.321448 24.894652 55.321448 55.321448s-24.894652 55.321448-55.321448 55.321448-55.321448-24.894652-55.321448-55.321448 24.894652-55.321448 55.321448-55.321448z" fill="#999999" p-id="9479"></path></svg>