<?xml version="1.0" standalone="no"?><!DOCTYPE svg PUBLIC "-//W3C//DTD SVG 1.1//EN" "http://www.w3.org/Graphics/SVG/1.1/DTD/svg11.dtd"><svg t="1623131006835" class="icon" viewBox="0 0 1024 1024" version="1.1" xmlns="http://www.w3.org/2000/svg" p-id="13481" xmlns:xlink="http://www.w3.org/1999/xlink" width="48" height="48"><defs><style type="text/css"></style></defs><path d="M924.79599966 762.515333H274.04399966c-19.285333 0-37.376-7.509333-50.858666-21.16266601-13.482667-13.653333-20.992-31.573333-20.82133399-50.858667l2.38933399-479.232c0-19.114667-6.656-31.914667-39.76533399-37.205333h-0.170666l-95.573334-16.38399999c-9.216-1.536-15.530667-10.410667-13.994666-19.626667 1.536-9.216 10.410667-15.530667 19.62666599-13.994667l95.40266701 16.384c45.397333 7.168 68.437333 31.061333 68.437333 70.99733399L236.32666666 690.83533299c0 10.069333 3.754667 19.456 10.922667 26.45333401 7.168 7.168 16.554667 11.093333 26.624 11.093333h650.752c9.386667 0 17.066667 7.68 17.066666 17.06666699s-7.509333 17.066667-16.896 17.06666601z" fill="#d81e06" p-id="13482"></path><path d="M876.15599966 664.552667l-602.624-1.87733401c-18.944-0.170667-36.693333-7.509333-50.005333-20.99199999-13.312-13.482667-20.48-31.232-20.47999999-50.176l1.87733299-353.962666L886.73733366 288.403333c30.890667 1.194667 55.125333 26.282667 55.125333 57.173334V599.01666699c0 36.181333-29.525333 65.536-65.706667 65.53600001zM273.87333366 628.542l602.453333 1.87733299c17.408 0 31.573333-14.165333 31.57333301-31.402666V345.576667c0-12.458667-9.898667-22.698667-22.35733301-23.04000001h-0.68266699l-645.632-48.12799999-1.53600001 317.44c0 9.728 3.754667 18.944 10.58133401 25.941333 6.485333 6.826667 15.701333 10.752 25.59999999 10.752z" fill="#d81e06" p-id="13483"></path><path d="M340.26266667 818.83533299m-63.658667 0a63.658667 63.658667 0 1 0 127.31733399 0 63.658667 63.658667 0 1 0-127.31733399 0Z" fill="#d81e06" p-id="13484"></path><path d="M340.26266667 899.560667c-44.544 0-80.725333-36.181333-80.72533301-80.72533401s36.181333-80.725333 80.72533301-80.72533299c44.544 0 80.725333 36.181333 80.72533299 80.72533299s-36.181333 80.725333-80.72533299 80.72533401z m0-127.317334c-25.770667 0-46.592 20.821333-46.59200001 46.59199999s20.821333 46.592 46.59200001 46.592 46.592-20.821333 46.592-46.592-20.821333-46.592-46.592-46.59199999z" fill="#d81e06" p-id="13485"></path><path d="M828.88133367 818.83533299m-63.658667 0a63.658667 63.658667 0 1 0 127.317333 0 63.658667 63.658667 0 1 0-127.317333 0Z" fill="#d81e06" p-id="13486"></path><path d="M828.88133367 899.560667c-44.544 0-80.725333-36.181333-80.72533401-80.72533401s36.181333-80.725333 80.72533401-80.72533299 80.725333 36.181333 80.72533299 80.72533299-36.181333 80.725333-80.72533299 80.72533401z m0-127.317334c-25.770667 0-46.592 20.821333-46.592 46.59199999s20.821333 46.592 46.592 46.592 46.592-20.821333 46.592-46.592-20.821333-46.592-46.592-46.59199999z" fill="#d81e06" p-id="13487"></path><path d="M726.48133366 436.71266699H378.66266666c-9.386667 0-17.066667-7.68-17.066667-17.06666699s7.68-17.066667 17.066667-17.066667h347.818667c9.386667 0 17.066667 7.68 17.066666 17.066667s-7.68 17.066667-17.066666 17.06666699zM726.48133366 534.846H378.66266666c-9.386667 0-17.066667-7.68-17.066667-17.066667s7.68-17.066667 17.066667-17.066666h347.818667c9.386667 0 17.066667 7.68 17.066666 17.066666s-7.68 17.066667-17.066666 17.066667z" fill="#d81e06" p-id="13488"></path></svg>