<?xml version="1.0" standalone="no"?><!DOCTYPE svg PUBLIC "-//W3C//DTD SVG 1.1//EN" "http://www.w3.org/Graphics/SVG/1.1/DTD/svg11.dtd"><svg t="1623484824371" class="icon" viewBox="0 0 1024 1024" version="1.1" xmlns="http://www.w3.org/2000/svg" p-id="2720" width="48" height="48" xmlns:xlink="http://www.w3.org/1999/xlink"><defs><style type="text/css"></style></defs><path d="M512 0C230.4 0 0 230.4 0 512s230.4 512 512 512 512-230.4 512-512-230.4-512-512-512z m0 953.6c-243.2 0-441.6-198.4-441.6-441.6s192-441.6 441.6-441.6 441.6 198.4 441.6 441.6-198.4 441.6-441.6 441.6z" fill="#515151" p-id="2721"></path><path d="M633.6 256c-12.8-12.8-38.4-12.8-51.2 0L345.6 486.4c-6.4 6.4-12.8 19.2-12.8 25.6 0 12.8 6.4 19.2 12.8 25.6L582.4 768c6.4 6.4 19.2 12.8 25.6 12.8 12.8 0 19.2-6.4 25.6-12.8 12.8-12.8 12.8-32 0-51.2L422.4 512l204.8-204.8c19.2-19.2 19.2-44.8 6.4-51.2z" fill="#515151" p-id="2722"></path></svg>